<svg width="16" height="16" viewBox="0 0 16 16" fill="none" xmlns="http://www.w3.org/2000/svg">
  <path fill="white" d="M8 0C3.582 0 0 3.582 0 8c0 3.54 2.292 6.531 5.472 7.591.4.074.546-.174.546-.387 0-.191-.007-.697-.011-1.368-2.226.484-2.696-1.073-2.696-1.073-.364-.924-.888-1.171-.888-1.171-.726-.497.055-.487.055-.487.803.056 1.226.825 1.226.825.713 1.22 1.87.868 2.326.663.072-.517.28-.867.508-1.066-1.777-.202-3.644-.888-3.644-3.951 0-.872.312-1.585.823-2.144-.083-.203-.357-1.016.077-2.118 0 0 .672-.215 2.2.82a7.683 7.683 0 012-.27c.678.003 1.362.092 2 .27 1.528-1.035 2.2-.82 2.2-.82.434 1.102.16 1.915.078 2.118.512.559.822 1.272.822 2.144 0 3.071-1.87 3.747-3.65 3.945.288.247.543.735.543 1.48 0 1.07-.01 1.932-.01 2.194 0 .216.144.466.55.386C13.71 14.53 16 11.54 16 8c0-4.418-3.582-8-8-8z"/>
</svg>
